<svg width="1200" height="1200" viewBox="0 0 1200 1200" fill="none" xmlns="http://www.w3.org/2000/svg">
<rect width="1200" height="1200" rx="600" fill="url(#paint0_linear_4725_467)"/>
<rect x="245.988" y="422.674" width="709.025" height="354.65" rx="177.325" stroke="white" stroke-width="22"/>
<path d="M592.537 433.788V777.326H245.987V508.875C245.987 360.615 366.177 240.425 514.438 240.425H930.557L917.861 289.703C897.679 368.04 827.039 422.788 746.143 422.788H603.537H592.537V433.788Z" stroke="white" stroke-width="22"/>
<path d="M608.212 766.538V423H954.762V691.45C954.762 839.711 834.573 959.9 686.312 959.9H270.193L282.888 910.623C303.07 832.286 373.711 777.538 454.606 777.538H597.212H608.212V766.538Z" stroke="white" stroke-width="22"/>
<path d="M599.55 422.474C599.55 422.474 629.559 496.696 664.719 531.856C699.878 567.015 774.1 597.024 774.1 597.024C774.1 597.024 699.878 627.034 664.719 662.193C629.559 697.353 599.55 771.575 599.55 771.575C599.55 771.575 569.541 697.353 534.381 662.193C499.222 627.034 425 597.024 425 597.024C425 597.024 499.222 567.015 534.381 531.856C569.541 496.696 599.55 422.474 599.55 422.474Z" fill="white"/>
<line x1="237.013" y1="595.074" x2="544.813" y2="595.074" stroke="white" stroke-width="22"/>
<line x1="658.213" y1="595.074" x2="966.013" y2="595.074" stroke="white" stroke-width="22"/>
<defs>
<linearGradient id="paint0_linear_4725_467" x1="98.5" y1="85.5" x2="1681" y2="1164.5" gradientUnits="userSpaceOnUse">
<stop stop-color="#ED6A20"/>
<stop offset="1" stop-color="white"/>
</linearGradient>
</defs>
</svg>
